<svg data-v-423bf9ae="" xmlns="http://www.w3.org/2000/svg" viewBox="0 0 242.07278565165436 60" class="font"><!----><!----><!----><g data-v-423bf9ae="" id="edc8ec14-f827-48c9-9e94-a119ef834abb" fill="black" transform="matrix(3.7014190862893512,0,0,3.7014190862893512,-4.145592750020583,-2.257866291632176)"><path d="M7.44 4.13L7.44 2.10L1.12 2.10L1.12 12.60L3.43 12.60L3.43 8.37L6.86 8.37L6.86 6.34L3.43 6.34L3.43 4.13ZM12.06 12.74C14.40 12.74 15.94 11.20 15.94 9.10C15.94 7.00 14.40 5.46 12.06 5.46C9.71 5.46 8.16 7.00 8.16 9.10C8.16 11.20 9.71 12.74 12.06 12.74ZM12.06 10.76C11.10 10.75 10.40 10.05 10.40 9.10C10.40 8.16 11.10 7.46 12.06 7.44C13.00 7.46 13.72 8.16 13.72 9.10C13.72 10.05 13.00 10.75 12.06 10.76ZM20.95 12.74C23.29 12.74 24.83 11.20 24.83 9.10C24.83 7.00 23.29 5.46 20.95 5.46C18.60 5.46 17.05 7.00 17.05 9.10C17.05 11.20 18.60 12.74 20.95 12.74ZM20.95 10.76C19.99 10.75 19.29 10.05 19.29 9.10C19.29 8.16 19.99 7.46 20.95 7.44C21.89 7.46 22.61 8.16 22.61 9.10C22.61 10.05 21.89 10.75 20.95 10.76ZM31.40 0.61L31.40 6.21C30.87 5.74 30.21 5.46 29.40 5.46C27.46 5.46 25.94 7.07 25.94 9.10C25.94 11.13 27.46 12.74 29.40 12.74C30.21 12.74 30.87 12.46 31.40 11.99L31.40 12.62L33.62 12.60L33.62 0.61ZM29.84 10.76C28.91 10.76 28.18 10.03 28.18 9.10C28.18 8.17 28.91 7.44 29.84 7.44C30.75 7.44 31.50 8.17 31.50 9.10C31.50 10.03 30.75 10.76 29.84 10.76ZM46.31 12.60L48.77 12.60L44.99 2.10L42.40 2.10L38.62 12.60L41.09 12.60L41.74 10.62L45.66 10.62ZM42.35 8.70L43.70 4.53L45.05 8.70ZM53.81 5.46C53.01 5.46 52.34 5.74 51.82 6.21L51.82 5.62L49.58 5.60L49.58 16.80L51.82 16.82L51.82 11.99C52.34 12.46 53.01 12.74 53.81 12.74C55.74 12.74 57.26 11.13 57.26 9.10C57.26 7.07 55.74 5.46 53.81 5.46ZM53.38 10.76C52.45 10.76 51.71 10.03 51.71 9.10C51.71 8.17 52.45 7.44 53.38 7.44C54.30 7.44 55.04 8.17 55.04 9.10C55.04 10.03 54.30 10.76 53.38 10.76ZM63.07 5.46C62.27 5.46 61.60 5.74 61.08 6.21L61.08 5.62L58.84 5.60L58.84 16.80L61.08 16.82L61.08 11.99C61.60 12.46 62.27 12.74 63.07 12.74C65.00 12.74 66.52 11.13 66.52 9.10C66.52 7.07 65.00 5.46 63.07 5.46ZM62.63 10.76C61.71 10.76 60.97 10.03 60.97 9.10C60.97 8.17 61.71 7.44 62.63 7.44C63.56 7.44 64.30 8.17 64.30 9.10C64.30 10.03 63.56 10.76 62.63 10.76Z"></path></g><!----><!----></svg>